rotated_Sprint_07200001_forces_filt5Hz.mot
version=1
nRows=43
nColumns=19
inDegrees=yes
endheader
time	R_ground_force_vx	R_ground_force_vy	R_ground_force_vz	R_ground_force_px	R_ground_force_py	R_ground_force_pz	R_ground_torque_x	R_ground_torque_y	R_ground_torque_z	L_ground_force_vx	L_ground_force_vy	L_ground_force_vz	L_ground_force_px	L_ground_force_py	L_ground_force_pz	L_ground_torque_x	L_ground_torque_y	L_ground_torque_z	
0.000000	  0.000000	  0.000000	  0.000000	  0.175982	  0.000000	 -0.546572	  0.000000	  0.000000	  0.000000	  0.000000	  0.000000	  0.000000	  1.204600	  0.000000	 -0.172650	  0.000000	  0.000000	  0.000000
0.000500	  0.000000	  0.000000	  0.000000	  0.177108	 -0.000000	 -0.548824	  0.000000	  0.000000	  0.000000	  0.000000	  0.000000	  0.000000	  1.205115	 -0.000000	 -0.172439	  0.000000	  0.000000	  0.000000
0.001000	  0.000000	  0.000000	  0.000000	  0.178233	 -0.000000	 -0.551077	  0.000000	  0.000000	  0.000000	  0.000000	  0.000000	  0.000000	  1.205630	 -0.000000	 -0.172227	  0.000000	  0.000000	  0.000000
0.001500	  0.000000	  0.000000	  0.000000	  0.179359	 -0.000000	 -0.553329	  0.000000	  0.000000	  0.000000	  0.000000	  0.000000	  0.000000	  1.206146	 -0.000000	 -0.172016	  0.000000	  0.000000	  0.000000
0.002000	  0.000000	  0.000000	  0.000000	  0.180484	 -0.000000	 -0.555582	  0.000000	  0.000000	  0.000000	  0.000000	  0.000000	  0.000000	  1.206661	 -0.000000	 -0.171805	  0.000000	  0.000000	  0.000000
0.002500	  0.000000	  0.000000	  0.000000	  0.181609	  0.000000	 -0.557834	  0.000000	  0.000000	  0.000000	  0.000000	  0.000000	  0.000000	  1.207176	  0.000000	 -0.171594	  0.000000	  0.000000	  0.000000
0.003000	  0.000000	  0.000000	  0.000000	  0.182735	  0.000000	 -0.560086	  0.000000	  0.000000	  0.000000	  0.000000	  0.000000	  0.000000	  1.207691	  0.000000	 -0.171382	  0.000000	  0.000000	  0.000000
0.003500	  0.000000	  0.000000	  0.000000	  0.183860	  0.000000	 -0.562339	  0.000000	  0.000000	  0.000000	  0.000000	  0.000000	  0.000000	  1.208206	  0.000000	 -0.171171	  0.000000	  0.000000	  0.000000
0.004000	  0.000000	  0.000000	  0.000000	  0.184986	  0.000000	 -0.564591	  0.000000	  0.000000	  0.000000	  0.000000	  0.000000	  0.000000	  1.208722	  0.000000	 -0.170960	  0.000000	  0.000000	  0.000000
0.004500	  0.000000	  0.000000	  0.000000	  0.186111	  0.000000	 -0.566844	  0.000000	  0.000000	  0.000000	  0.000000	  0.000000	  0.000000	  1.209237	  0.000000	 -0.170748	  0.000000	  0.000000	  0.000000
0.005000	  0.000000	  0.000000	  0.000000	  0.187237	  0.000000	 -0.569096	  0.000000	  0.000000	  0.000000	  0.000000	  0.000000	  0.000000	  1.209752	  0.000000	 -0.170537	  0.000000	  0.000000	  0.000000
0.005500	  0.000000	  0.000000	  0.000000	  0.188553	  0.000000	 -0.571241	  0.000000	  0.000000	  0.000000	  0.000000	  0.000000	  0.000000	  1.209859	  0.000000	 -0.170331	  0.000000	  0.000000	  0.000000
0.006000	  0.000000	  0.000000	  0.000000	  0.189870	  0.000000	 -0.573385	  0.000000	  0.000000	  0.000000	  0.000000	  0.000000	  0.000000	  1.209967	  0.000000	 -0.170125	  0.000000	  0.000000	  0.000000
0.006500	  0.000000	  0.000000	  0.000000	  0.191186	  0.000000	 -0.575530	  0.000000	  0.000000	  0.000000	  0.000000	  0.000000	  0.000000	  1.210074	  0.000000	 -0.169918	  0.000000	  0.000000	  0.000000
0.007000	  0.000000	  0.000000	  0.000000	  0.192502	  0.000000	 -0.577675	  0.000000	  0.000000	  0.000000	  0.000000	  0.000000	  0.000000	  1.210181	  0.000000	 -0.169712	  0.000000	  0.000000	  0.000000
0.007500	  0.000000	  0.000000	  0.000000	  0.193818	  0.000000	 -0.579820	  0.000000	  0.000000	  0.000000	  0.000000	  0.000000	  0.000000	  1.210289	  0.000000	 -0.169506	  0.000000	  0.000000	  0.000000
0.008000	  0.000000	  0.000000	  0.000000	  0.195135	  0.000000	 -0.581964	  0.000000	  0.000000	  0.000000	  0.000000	  0.000000	  0.000000	  1.210396	  0.000000	 -0.169300	  0.000000	  0.000000	  0.000000
0.008500	  0.000000	  0.000000	  0.000000	  0.196451	  0.000000	 -0.584109	  0.000000	  0.000000	  0.000000	  0.000000	  0.000000	  0.000000	  1.210503	  0.000000	 -0.169094	  0.000000	  0.000000	  0.000000
0.009000	  0.000000	  0.000000	  0.000000	  0.197767	  0.000000	 -0.586254	  0.000000	  0.000000	  0.000000	  0.000000	  0.000000	  0.000000	  1.210610	  0.000000	 -0.168887	  0.000000	  0.000000	  0.000000
0.009500	  0.000000	  0.000000	  0.000000	  0.199084	  0.000000	 -0.588398	  0.000000	  0.000000	  0.000000	  0.000000	  0.000000	  0.000000	  1.210718	  0.000000	 -0.168681	  0.000000	  0.000000	  0.000000
0.010000	  0.000000	  0.000000	  0.000000	  0.200400	  0.000000	 -0.590543	  0.000000	  0.000000	  0.000000	  0.000000	  0.000000	  0.000000	  1.210825	  0.000000	 -0.168475	  0.000000	  0.000000	  0.000000
0.010500	  0.000000	  0.000000	  0.000000	  0.201844	  0.000000	 -0.592583	  0.000000	  0.000000	  0.000000	  0.000000	  0.000000	  0.000000	  1.210557	  0.000000	 -0.168268	  0.000000	  0.000000	  0.000000
0.011000	  0.000000	  0.000000	  0.000000	  0.203287	  0.000000	 -0.594623	  0.000000	  0.000000	  0.000000	  0.000000	  0.000000	  0.000000	  1.210289	  0.000000	 -0.168060	  0.000000	  0.000000	  0.000000
0.011500	  0.000000	  0.000000	  0.000000	  0.204731	  0.000000	 -0.596663	  0.000000	  0.000000	  0.000000	  0.000000	  0.000000	  0.000000	  1.210021	  0.000000	 -0.167853	  0.000000	  0.000000	  0.000000
0.012000	  0.000000	  0.000000	  0.000000	  0.206174	  0.000000	 -0.598703	  0.000000	  0.000000	  0.000000	  0.000000	  0.000000	  0.000000	  1.209753	  0.000000	 -0.167645	  0.000000	  0.000000	  0.000000
0.012500	  0.000000	  0.000000	  0.000000	  0.207618	  0.000000	 -0.600744	  0.000000	  0.000000	  0.000000	  0.000000	  0.000000	  0.000000	  1.209485	  0.000000	 -0.167438	  0.000000	  0.000000	  0.000000
0.013000	  0.000000	  0.000000	  0.000000	  0.209062	  0.000000	 -0.602784	  0.000000	  0.000000	  0.000000	  0.000000	  0.000000	  0.000000	  1.209217	  0.000000	 -0.167231	  0.000000	  0.000000	  0.000000
0.013500	  0.000000	  0.000000	  0.000000	  0.210505	  0.000000	 -0.604824	  0.000000	  0.000000	  0.000000	-43.611914	 12.263362	 49.583468	  1.208949	  0.000000	 -0.167023	  0.000000	 18.659905	  0.000000
0.014000	  0.000000	  0.000000	  0.000000	  0.211949	  0.000000	 -0.606864	  0.000000	  0.000000	  0.000000	-44.025149	 15.408029	 49.241081	  1.208681	  0.000000	 -0.166816	  0.000000	 16.215496	  0.000000
0.014500	  0.000000	  0.000000	  0.000000	  0.213392	  0.000000	 -0.608904	  0.000000	  0.000000	  0.000000	-44.449326	 18.619491	 48.904960	  1.208413	  0.000000	 -0.166608	  0.000000	 13.977559	  0.000000
0.015000	  0.000000	  0.000000	  0.000000	  0.214836	  0.000000	 -0.610944	  0.000000	  0.000000	  0.000000	-44.884450	 21.898445	 48.575106	  1.208145	  0.000000	 -0.166401	  0.000000	 11.927116	  0.000000
0.015500	  0.000000	  0.000000	  0.000000	  0.216376	  0.000000	 -0.612816	  0.000000	  0.000000	  0.000000	-45.330525	 25.245591	 48.251515	  1.207553	  0.000000	 -0.166206	  0.000000	 10.047228	  0.000000
0.016000	  0.000000	  0.000000	  0.000000	  0.217917	  0.000000	 -0.614687	  0.000000	  0.000000	  0.000000	-45.787554	 28.661625	 47.934169	  1.206960	  0.000000	 -0.166011	  0.000000	  8.322740	  0.000000
0.016500	  0.000000	  0.000000	  0.000000	  0.219457	  0.000000	 -0.616559	  0.000000	  0.000000	  0.000000	-46.255536	 32.147242	 47.623046	  1.206368	  0.000000	 -0.165816	  0.000000	  6.740059	  0.000000
0.017000	  0.000000	  0.000000	  0.000000	  0.220997	  0.000000	 -0.618431	  0.000000	  0.000000	  0.000000	-46.734468	 35.703136	 47.318111	  1.205776	  0.000000	 -0.165621	  0.000000	  5.286965	  0.000000
0.017500	  0.000000	  0.000000	  0.000000	  0.222538	  0.000000	 -0.620302	  0.000000	  0.000000	  0.000000	-47.224348	 39.329997	 47.019325	  1.205184	  0.000000	 -0.165427	  0.000000	  3.952447	  0.000000
0.018000	  0.000000	  0.000000	  0.000000	  0.224078	  0.000000	 -0.622174	  0.000000	  0.000000	  0.000000	-47.725169	 43.028516	 46.726638	  1.204591	  0.000000	 -0.165232	  0.000000	  2.726565	  0.000000
0.018500	  0.000000	  0.000000	  0.000000	  0.225618	  0.000000	 -0.624046	  0.000000	  0.000000	  0.000000	-48.236923	 46.799378	 46.439996	  1.203999	  0.000000	 -0.165037	  0.000000	  1.600327	  0.000000
0.019000	  0.000000	  0.000000	  0.000000	  0.227158	  0.000000	 -0.625918	  0.000000	  0.000000	  0.000000	-48.759600	 50.643269	 46.159340	  1.203407	  0.000000	 -0.164842	  0.000000	  0.565585	  0.000000
0.019500	  0.000000	  0.000000	  0.000000	  0.228699	  0.000000	 -0.627789	  0.000000	  0.000000	  0.000000	-49.293186	 54.560868	 45.884607	  1.202814	  0.000000	 -0.164647	  0.000000	 -0.385059	  0.000000
0.020000	  0.000000	  0.000000	  0.000000	  0.230239	  0.000000	 -0.629661	  0.000000	  0.000000	  0.000000	-49.837667	 58.552856	 45.615732	  1.202222	  0.000000	 -0.164452	  0.000000	 -1.258328	  0.000000
0.020500	  0.000000	  0.000000	  0.000000	  0.231910	  0.000000	 -0.631460	  0.000000	  0.000000	  0.000000	-50.393022	 62.619906	 45.352650	  1.201323	  0.000000	 -0.164223	  0.000000	 -2.060349	  0.000000
0.021000	  0.000000	  0.000000	  0.000000	  0.233581	  0.000000	 -0.633260	  0.000000	  0.000000	  0.000000	-50.959231	 66.762691	 45.095294	  1.200424	  0.000000	 -0.163993	  0.000000	 -2.796707	  0.000000
